<svg width="418" height="145" viewBox="0 0 418 145" fill="none" xmlns="http://www.w3.org/2000/svg">
<g clip-path="url(#clip0_176_640)">
<path opacity="0.89" d="M179 38.7424L129.65 0L107.504 21.9256L80.1619 2.8255C50.5436 29.2057 22.062 55.9604 10.0327 73.2124C-22.1481 127.366 29.2478 153.581 77.1794 142.491C96.8961 137.562 111.527 126.634 128.42 109.36C104.969 123.16 92.6088 132.409 76.5616 132.363C-7.36118 132.12 25.1113 32.9649 131.973 42.504L120.628 32.4154C122.148 27.8197 141.321 29.8209 179 38.7424Z" fill="white"/>
</g>
<path d="M158.809 59.8525V68.3047C158.477 68.7051 157.964 69.1396 157.271 69.6084C156.577 70.0674 155.684 70.4629 154.59 70.7949C153.496 71.127 152.173 71.293 150.62 71.293C149.243 71.293 147.988 71.0684 146.855 70.6191C145.723 70.1602 144.746 69.4912 143.926 68.6123C143.115 67.7334 142.49 66.6592 142.051 65.3896C141.611 64.1104 141.392 62.6504 141.392 61.0098V59.6768C141.392 58.0361 141.602 56.5762 142.021 55.2969C142.451 54.0176 143.062 52.9385 143.853 52.0596C144.644 51.1807 145.586 50.5117 146.68 50.0527C147.773 49.5938 148.989 49.3643 150.327 49.3643C152.183 49.3643 153.706 49.667 154.897 50.2725C156.089 50.8682 156.997 51.6982 157.622 52.7627C158.257 53.8174 158.647 55.0283 158.794 56.3955H154.531C154.424 55.6729 154.219 55.043 153.916 54.5059C153.613 53.9688 153.179 53.5488 152.612 53.2461C152.056 52.9434 151.333 52.792 150.444 52.792C149.712 52.792 149.058 52.9434 148.481 53.2461C147.915 53.5391 147.437 53.9736 147.046 54.5498C146.655 55.126 146.357 55.8389 146.152 56.6885C145.947 57.5381 145.845 58.5244 145.845 59.6475V61.0098C145.845 62.123 145.952 63.1094 146.167 63.9688C146.382 64.8184 146.699 65.5361 147.119 66.1221C147.549 66.6982 148.076 67.1328 148.701 67.4258C149.326 67.7188 150.054 67.8652 150.884 67.8652C151.577 67.8652 152.153 67.8066 152.612 67.6895C153.081 67.5723 153.457 67.4307 153.74 67.2646C154.033 67.0889 154.258 66.9229 154.414 66.7666V62.9873H150.4V59.8525H158.809ZM169.385 71.293C168.154 71.293 167.051 71.0977 166.074 70.707C165.098 70.3066 164.268 69.7549 163.584 69.0518C162.91 68.3486 162.393 67.5332 162.031 66.6055C161.67 65.668 161.489 64.6719 161.489 63.6172V63.0312C161.489 61.8301 161.66 60.7314 162.002 59.7354C162.344 58.7393 162.832 57.875 163.467 57.1426C164.111 56.4102 164.893 55.8486 165.811 55.458C166.729 55.0576 167.764 54.8574 168.916 54.8574C170.039 54.8574 171.035 55.043 171.904 55.4141C172.773 55.7852 173.501 56.3125 174.087 56.9961C174.683 57.6797 175.132 58.5 175.435 59.457C175.737 60.4043 175.889 61.459 175.889 62.6211V64.3789H163.291V61.5664H171.743V61.2441C171.743 60.6582 171.636 60.1357 171.421 59.6768C171.216 59.208 170.903 58.8369 170.483 58.5635C170.063 58.29 169.526 58.1533 168.872 58.1533C168.315 58.1533 167.837 58.2754 167.437 58.5195C167.036 58.7637 166.709 59.1055 166.455 59.5449C166.211 59.9844 166.025 60.502 165.898 61.0977C165.781 61.6836 165.723 62.3281 165.723 63.0312V63.6172C165.723 64.252 165.811 64.8379 165.986 65.375C166.172 65.9121 166.431 66.376 166.763 66.7666C167.104 67.1572 167.515 67.46 167.993 67.6748C168.481 67.8896 169.033 67.9971 169.648 67.9971C170.41 67.9971 171.118 67.8506 171.772 67.5576C172.437 67.2549 173.008 66.8008 173.486 66.1953L175.537 68.4219C175.205 68.9004 174.751 69.3594 174.175 69.7988C173.608 70.2383 172.925 70.5996 172.124 70.8828C171.323 71.1562 170.41 71.293 169.385 71.293ZM182.422 58.5342V71H178.203V55.1504H182.158L182.422 58.5342ZM181.807 62.5186H180.664C180.664 61.3467 180.815 60.292 181.118 59.3545C181.421 58.4072 181.846 57.6016 182.393 56.9375C182.939 56.2637 183.589 55.751 184.341 55.3994C185.103 55.0381 185.952 54.8574 186.89 54.8574C187.632 54.8574 188.311 54.9648 188.926 55.1797C189.541 55.3945 190.068 55.7363 190.508 56.2051C190.957 56.6738 191.299 57.2939 191.533 58.0654C191.777 58.8369 191.899 59.7793 191.899 60.8926V71H187.651V60.8779C187.651 60.1748 187.554 59.6279 187.358 59.2373C187.163 58.8467 186.875 58.5732 186.494 58.417C186.123 58.251 185.664 58.168 185.117 58.168C184.551 58.168 184.058 58.2803 183.638 58.5049C183.228 58.7295 182.886 59.042 182.612 59.4424C182.349 59.833 182.148 60.292 182.012 60.8193C181.875 61.3467 181.807 61.9131 181.807 62.5186ZM202.402 71.293C201.172 71.293 200.068 71.0977 199.092 70.707C198.115 70.3066 197.285 69.7549 196.602 69.0518C195.928 68.3486 195.41 67.5332 195.049 66.6055C194.688 65.668 194.507 64.6719 194.507 63.6172V63.0312C194.507 61.8301 194.678 60.7314 195.02 59.7354C195.361 58.7393 195.85 57.875 196.484 57.1426C197.129 56.4102 197.91 55.8486 198.828 55.458C199.746 55.0576 200.781 54.8574 201.934 54.8574C203.057 54.8574 204.053 55.043 204.922 55.4141C205.791 55.7852 206.519 56.3125 207.104 56.9961C207.7 57.6797 208.149 58.5 208.452 59.457C208.755 60.4043 208.906 61.459 208.906 62.6211V64.3789H196.309V61.5664H204.761V61.2441C204.761 60.6582 204.653 60.1357 204.438 59.6768C204.233 59.208 203.921 58.8369 203.501 58.5635C203.081 58.29 202.544 58.1533 201.89 58.1533C201.333 58.1533 200.854 58.2754 200.454 58.5195C200.054 58.7637 199.727 59.1055 199.473 59.5449C199.229 59.9844 199.043 60.502 198.916 61.0977C198.799 61.6836 198.74 62.3281 198.74 63.0312V63.6172C198.74 64.252 198.828 64.8379 199.004 65.375C199.189 65.9121 199.448 66.376 199.78 66.7666C200.122 67.1572 200.532 67.46 201.011 67.6748C201.499 67.8896 202.051 67.9971 202.666 67.9971C203.428 67.9971 204.136 67.8506 204.79 67.5576C205.454 67.2549 206.025 66.8008 206.504 66.1953L208.555 68.4219C208.223 68.9004 207.769 69.3594 207.192 69.7988C206.626 70.2383 205.942 70.5996 205.142 70.8828C204.341 71.1562 203.428 71.293 202.402 71.293ZM215.527 58.6074V71H211.309V55.1504H215.278L215.527 58.6074ZM220.303 55.0479L220.229 58.959C220.024 58.9297 219.775 58.9053 219.482 58.8857C219.199 58.8564 218.94 58.8418 218.706 58.8418C218.11 58.8418 217.593 58.9199 217.153 59.0762C216.724 59.2227 216.362 59.4424 216.069 59.7354C215.786 60.0283 215.571 60.3848 215.425 60.8047C215.288 61.2246 215.21 61.7031 215.19 62.2402L214.341 61.9766C214.341 60.9512 214.443 60.0088 214.648 59.1494C214.854 58.2803 215.151 57.5234 215.542 56.8789C215.942 56.2344 216.431 55.7363 217.007 55.3848C217.583 55.0332 218.242 54.8574 218.984 54.8574C219.219 54.8574 219.458 54.877 219.702 54.916C219.946 54.9453 220.146 54.9893 220.303 55.0479ZM230.352 67.4258V60.3652C230.352 59.8574 230.269 59.4229 230.103 59.0615C229.937 58.6904 229.678 58.4023 229.326 58.1973C228.984 57.9922 228.54 57.8896 227.993 57.8896C227.524 57.8896 227.119 57.9727 226.777 58.1387C226.436 58.2949 226.172 58.5244 225.986 58.8271C225.801 59.1201 225.708 59.4668 225.708 59.8672H221.489C221.489 59.1934 221.646 58.5537 221.958 57.9482C222.271 57.3428 222.725 56.8105 223.32 56.3516C223.916 55.8828 224.624 55.5166 225.444 55.2529C226.274 54.9893 227.202 54.8574 228.228 54.8574C229.458 54.8574 230.552 55.0625 231.509 55.4727C232.466 55.8828 233.218 56.498 233.765 57.3184C234.321 58.1387 234.6 59.1641 234.6 60.3945V67.1768C234.6 68.0459 234.653 68.7588 234.761 69.3154C234.868 69.8623 235.024 70.3408 235.229 70.751V71H230.967C230.762 70.5703 230.605 70.0332 230.498 69.3887C230.4 68.7344 230.352 68.0801 230.352 67.4258ZM230.908 61.3467L230.938 63.7344H228.579C228.022 63.7344 227.539 63.7979 227.129 63.9248C226.719 64.0518 226.382 64.2324 226.118 64.4668C225.854 64.6914 225.659 64.9551 225.532 65.2578C225.415 65.5605 225.356 65.8926 225.356 66.2539C225.356 66.6152 225.439 66.9424 225.605 67.2354C225.771 67.5186 226.011 67.7432 226.323 67.9092C226.636 68.0654 227.002 68.1436 227.422 68.1436C228.057 68.1436 228.608 68.0166 229.077 67.7627C229.546 67.5088 229.907 67.1963 230.161 66.8252C230.425 66.4541 230.562 66.1025 230.571 65.7705L231.685 67.5576C231.528 67.958 231.313 68.373 231.04 68.8027C230.776 69.2324 230.439 69.6377 230.029 70.0186C229.619 70.3896 229.126 70.6973 228.55 70.9414C227.974 71.1758 227.29 71.293 226.499 71.293C225.493 71.293 224.58 71.0928 223.76 70.6924C222.949 70.2822 222.305 69.7207 221.826 69.0078C221.357 68.2852 221.123 67.4648 221.123 66.5469C221.123 65.7168 221.279 64.9795 221.592 64.335C221.904 63.6904 222.363 63.1484 222.969 62.709C223.584 62.2598 224.351 61.9229 225.269 61.6982C226.187 61.4639 227.251 61.3467 228.462 61.3467H230.908ZM242.305 48.5V71H238.071V48.5H242.305ZM262.197 53.3193L256.396 71H251.724L259.648 49.6719H262.622L262.197 53.3193ZM267.017 71L261.201 53.3193L260.732 49.6719H263.735L271.704 71H267.017ZM266.753 63.0605V66.5029H255.488V63.0605H266.753ZM278.794 71H274.546V53.7441C274.546 52.543 274.78 51.5322 275.249 50.7119C275.728 49.8818 276.396 49.2568 277.256 48.8369C278.125 48.4072 279.155 48.1924 280.347 48.1924C280.737 48.1924 281.113 48.2217 281.475 48.2803C281.836 48.3291 282.188 48.3926 282.529 48.4707L282.485 51.6494C282.3 51.6006 282.104 51.5664 281.899 51.5469C281.694 51.5273 281.455 51.5176 281.182 51.5176C280.674 51.5176 280.239 51.6055 279.878 51.7812C279.526 51.9473 279.258 52.1963 279.072 52.5283C278.887 52.8604 278.794 53.2656 278.794 53.7441V71ZM281.958 55.1504V58.1387H272.188V55.1504H281.958ZM289.546 71H285.298V53.7441C285.298 52.543 285.532 51.5322 286.001 50.7119C286.479 49.8818 287.148 49.2568 288.008 48.8369C288.877 48.4072 289.907 48.1924 291.099 48.1924C291.489 48.1924 291.865 48.2217 292.227 48.2803C292.588 48.3291 292.939 48.3926 293.281 48.4707L293.237 51.6494C293.052 51.6006 292.856 51.5664 292.651 51.5469C292.446 51.5273 292.207 51.5176 291.934 51.5176C291.426 51.5176 290.991 51.6055 290.63 51.7812C290.278 51.9473 290.01 52.1963 289.824 52.5283C289.639 52.8604 289.546 53.2656 289.546 53.7441V71ZM292.71 55.1504V58.1387H282.939V55.1504H292.71ZM303.477 67.4258V60.3652C303.477 59.8574 303.394 59.4229 303.228 59.0615C303.062 58.6904 302.803 58.4023 302.451 58.1973C302.109 57.9922 301.665 57.8896 301.118 57.8896C300.649 57.8896 300.244 57.9727 299.902 58.1387C299.561 58.2949 299.297 58.5244 299.111 58.8271C298.926 59.1201 298.833 59.4668 298.833 59.8672H294.614C294.614 59.1934 294.771 58.5537 295.083 57.9482C295.396 57.3428 295.85 56.8105 296.445 56.3516C297.041 55.8828 297.749 55.5166 298.569 55.2529C299.399 54.9893 300.327 54.8574 301.353 54.8574C302.583 54.8574 303.677 55.0625 304.634 55.4727C305.591 55.8828 306.343 56.498 306.89 57.3184C307.446 58.1387 307.725 59.1641 307.725 60.3945V67.1768C307.725 68.0459 307.778 68.7588 307.886 69.3154C307.993 69.8623 308.149 70.3408 308.354 70.751V71H304.092C303.887 70.5703 303.73 70.0332 303.623 69.3887C303.525 68.7344 303.477 68.0801 303.477 67.4258ZM304.033 61.3467L304.062 63.7344H301.704C301.147 63.7344 300.664 63.7979 300.254 63.9248C299.844 64.0518 299.507 64.2324 299.243 64.4668C298.979 64.6914 298.784 64.9551 298.657 65.2578C298.54 65.5605 298.481 65.8926 298.481 66.2539C298.481 66.6152 298.564 66.9424 298.73 67.2354C298.896 67.5186 299.136 67.7432 299.448 67.9092C299.761 68.0654 300.127 68.1436 300.547 68.1436C301.182 68.1436 301.733 68.0166 302.202 67.7627C302.671 67.5088 303.032 67.1963 303.286 66.8252C303.55 66.4541 303.687 66.1025 303.696 65.7705L304.81 67.5576C304.653 67.958 304.438 68.373 304.165 68.8027C303.901 69.2324 303.564 69.6377 303.154 70.0186C302.744 70.3896 302.251 70.6973 301.675 70.9414C301.099 71.1758 300.415 71.293 299.624 71.293C298.618 71.293 297.705 71.0928 296.885 70.6924C296.074 70.2822 295.43 69.7207 294.951 69.0078C294.482 68.2852 294.248 67.4648 294.248 66.5469C294.248 65.7168 294.404 64.9795 294.717 64.335C295.029 63.6904 295.488 63.1484 296.094 62.709C296.709 62.2598 297.476 61.9229 298.394 61.6982C299.312 61.4639 300.376 61.3467 301.587 61.3467H304.033ZM315.43 55.1504V71H311.196V55.1504H315.43ZM310.933 51.0195C310.933 50.4043 311.147 49.8965 311.577 49.4961C312.007 49.0957 312.583 48.8955 313.306 48.8955C314.019 48.8955 314.59 49.0957 315.02 49.4961C315.459 49.8965 315.679 50.4043 315.679 51.0195C315.679 51.6348 315.459 52.1426 315.02 52.543C314.59 52.9434 314.019 53.1436 313.306 53.1436C312.583 53.1436 312.007 52.9434 311.577 52.543C311.147 52.1426 310.933 51.6348 310.933 51.0195ZM323.135 58.6074V71H318.916V55.1504H322.886L323.135 58.6074ZM327.91 55.0479L327.837 58.959C327.632 58.9297 327.383 58.9053 327.09 58.8857C326.807 58.8564 326.548 58.8418 326.313 58.8418C325.718 58.8418 325.2 58.9199 324.761 59.0762C324.331 59.2227 323.97 59.4424 323.677 59.7354C323.394 60.0283 323.179 60.3848 323.032 60.8047C322.896 61.2246 322.817 61.7031 322.798 62.2402L321.948 61.9766C321.948 60.9512 322.051 60.0088 322.256 59.1494C322.461 58.2803 322.759 57.5234 323.149 56.8789C323.55 56.2344 324.038 55.7363 324.614 55.3848C325.19 55.0332 325.85 54.8574 326.592 54.8574C326.826 54.8574 327.065 54.877 327.31 54.916C327.554 54.9453 327.754 54.9893 327.91 55.0479ZM345.942 63.3975H340.508V59.9697H345.942C346.782 59.9697 347.466 59.833 347.993 59.5596C348.521 59.2764 348.906 58.8857 349.15 58.3877C349.395 57.8896 349.517 57.3281 349.517 56.7031C349.517 56.0684 349.395 55.4775 349.15 54.9307C348.906 54.3838 348.521 53.9443 347.993 53.6123C347.466 53.2803 346.782 53.1143 345.942 53.1143H342.031V71H337.637V49.6719H345.942C347.612 49.6719 349.043 49.9746 350.234 50.5801C351.436 51.1758 352.354 52.001 352.988 53.0557C353.623 54.1104 353.94 55.3164 353.94 56.6738C353.94 58.0508 353.623 59.2422 352.988 60.248C352.354 61.2539 351.436 62.0303 350.234 62.5771C349.043 63.124 347.612 63.3975 345.942 63.3975ZM355.83 63.2363V62.9287C355.83 61.7666 355.996 60.6973 356.328 59.7207C356.66 58.7344 357.144 57.8799 357.778 57.1572C358.413 56.4346 359.194 55.873 360.122 55.4727C361.05 55.0625 362.114 54.8574 363.315 54.8574C364.517 54.8574 365.586 55.0625 366.523 55.4727C367.461 55.873 368.247 56.4346 368.882 57.1572C369.526 57.8799 370.015 58.7344 370.347 59.7207C370.679 60.6973 370.845 61.7666 370.845 62.9287V63.2363C370.845 64.3887 370.679 65.458 370.347 66.4443C370.015 67.4209 369.526 68.2754 368.882 69.0078C368.247 69.7305 367.466 70.292 366.538 70.6924C365.61 71.0928 364.546 71.293 363.345 71.293C362.144 71.293 361.074 71.0928 360.137 70.6924C359.209 70.292 358.423 69.7305 357.778 69.0078C357.144 68.2754 356.66 67.4209 356.328 66.4443C355.996 65.458 355.83 64.3887 355.83 63.2363ZM360.049 62.9287V63.2363C360.049 63.9004 360.107 64.5205 360.225 65.0967C360.342 65.6729 360.527 66.1807 360.781 66.6201C361.045 67.0498 361.387 67.3867 361.807 67.6309C362.227 67.875 362.739 67.9971 363.345 67.9971C363.931 67.9971 364.434 67.875 364.854 67.6309C365.273 67.3867 365.61 67.0498 365.864 66.6201C366.118 66.1807 366.304 65.6729 366.421 65.0967C366.548 64.5205 366.611 63.9004 366.611 63.2363V62.9287C366.611 62.2842 366.548 61.6787 366.421 61.1123C366.304 60.5361 366.113 60.0283 365.85 59.5889C365.596 59.1396 365.259 58.7881 364.839 58.5342C364.419 58.2803 363.911 58.1533 363.315 58.1533C362.72 58.1533 362.212 58.2803 361.792 58.5342C361.382 58.7881 361.045 59.1396 360.781 59.5889C360.527 60.0283 360.342 60.5361 360.225 61.1123C360.107 61.6787 360.049 62.2842 360.049 62.9287ZM377.656 58.6074V71H373.438V55.1504H377.407L377.656 58.6074ZM382.432 55.0479L382.358 58.959C382.153 58.9297 381.904 58.9053 381.611 58.8857C381.328 58.8564 381.069 58.8418 380.835 58.8418C380.239 58.8418 379.722 58.9199 379.282 59.0762C378.853 59.2227 378.491 59.4424 378.198 59.7354C377.915 60.0283 377.7 60.3848 377.554 60.8047C377.417 61.2246 377.339 61.7031 377.319 62.2402L376.47 61.9766C376.47 60.9512 376.572 60.0088 376.777 59.1494C376.982 58.2803 377.28 57.5234 377.671 56.8789C378.071 56.2344 378.56 55.7363 379.136 55.3848C379.712 55.0332 380.371 54.8574 381.113 54.8574C381.348 54.8574 381.587 54.877 381.831 54.916C382.075 54.9453 382.275 54.9893 382.432 55.0479ZM392.92 55.1504V58.1387H383.691V55.1504H392.92ZM385.977 51.2393H390.195V66.2246C390.195 66.6836 390.254 67.0352 390.371 67.2793C390.498 67.5234 390.684 67.6943 390.928 67.792C391.172 67.8799 391.479 67.9238 391.851 67.9238C392.114 67.9238 392.349 67.9141 392.554 67.8945C392.769 67.8652 392.949 67.8359 393.096 67.8066L393.11 70.9121C392.749 71.0293 392.358 71.1221 391.938 71.1904C391.519 71.2588 391.055 71.293 390.547 71.293C389.619 71.293 388.809 71.1416 388.115 70.8389C387.432 70.5264 386.904 70.0283 386.533 69.3447C386.162 68.6611 385.977 67.7627 385.977 66.6494V51.2393ZM403.877 67.4258V60.3652C403.877 59.8574 403.794 59.4229 403.628 59.0615C403.462 58.6904 403.203 58.4023 402.852 58.1973C402.51 57.9922 402.065 57.8896 401.519 57.8896C401.05 57.8896 400.645 57.9727 400.303 58.1387C399.961 58.2949 399.697 58.5244 399.512 58.8271C399.326 59.1201 399.233 59.4668 399.233 59.8672H395.015C395.015 59.1934 395.171 58.5537 395.483 57.9482C395.796 57.3428 396.25 56.8105 396.846 56.3516C397.441 55.8828 398.149 55.5166 398.97 55.2529C399.8 54.9893 400.728 54.8574 401.753 54.8574C402.983 54.8574 404.077 55.0625 405.034 55.4727C405.991 55.8828 406.743 56.498 407.29 57.3184C407.847 58.1387 408.125 59.1641 408.125 60.3945V67.1768C408.125 68.0459 408.179 68.7588 408.286 69.3154C408.394 69.8623 408.55 70.3408 408.755 70.751V71H404.492C404.287 70.5703 404.131 70.0332 404.023 69.3887C403.926 68.7344 403.877 68.0801 403.877 67.4258ZM404.434 61.3467L404.463 63.7344H402.104C401.548 63.7344 401.064 63.7979 400.654 63.9248C400.244 64.0518 399.907 64.2324 399.644 64.4668C399.38 64.6914 399.185 64.9551 399.058 65.2578C398.94 65.5605 398.882 65.8926 398.882 66.2539C398.882 66.6152 398.965 66.9424 399.131 67.2354C399.297 67.5186 399.536 67.7432 399.849 67.9092C400.161 68.0654 400.527 68.1436 400.947 68.1436C401.582 68.1436 402.134 68.0166 402.603 67.7627C403.071 67.5088 403.433 67.1963 403.687 66.8252C403.95 66.4541 404.087 66.1025 404.097 65.7705L405.21 67.5576C405.054 67.958 404.839 68.373 404.565 68.8027C404.302 69.2324 403.965 69.6377 403.555 70.0186C403.145 70.3896 402.651 70.6973 402.075 70.9414C401.499 71.1758 400.815 71.293 400.024 71.293C399.019 71.293 398.105 71.0928 397.285 70.6924C396.475 70.2822 395.83 69.7207 395.352 69.0078C394.883 68.2852 394.648 67.4648 394.648 66.5469C394.648 65.7168 394.805 64.9795 395.117 64.335C395.43 63.6904 395.889 63.1484 396.494 62.709C397.109 62.2598 397.876 61.9229 398.794 61.6982C399.712 61.4639 400.776 61.3467 401.987 61.3467H404.434ZM415.83 48.5V71H411.597V48.5H415.83Z" fill="white"/>
<path d="M141.98 110V92.9375H146.797C148.281 92.9375 149.594 93.2656 150.734 93.9219C151.875 94.5781 152.754 95.5117 153.371 96.7227C153.996 97.9336 154.312 99.3242 154.32 100.895V101.984C154.32 103.594 154.008 105.004 153.383 106.215C152.766 107.426 151.879 108.355 150.723 109.004C149.574 109.652 148.234 109.984 146.703 110H141.98ZM144.23 94.7891V108.16H146.598C148.332 108.16 149.68 107.621 150.641 106.543C151.609 105.465 152.094 103.93 152.094 101.938V100.941C152.094 99.0039 151.637 97.5 150.723 96.4297C149.816 95.3516 148.527 94.8047 146.855 94.7891H144.23ZM162.652 110.234C160.934 110.234 159.535 109.672 158.457 108.547C157.379 107.414 156.84 105.902 156.84 104.012V103.613C156.84 102.355 157.078 101.234 157.555 100.25C158.039 99.2578 158.711 98.4844 159.57 97.9297C160.438 97.3672 161.375 97.0859 162.383 97.0859C164.031 97.0859 165.312 97.6289 166.227 98.7148C167.141 99.8008 167.598 101.355 167.598 103.379V104.281H159.008C159.039 105.531 159.402 106.543 160.098 107.316C160.801 108.082 161.691 108.465 162.77 108.465C163.535 108.465 164.184 108.309 164.715 107.996C165.246 107.684 165.711 107.27 166.109 106.754L167.434 107.785C166.371 109.418 164.777 110.234 162.652 110.234ZM162.383 98.8672C161.508 98.8672 160.773 99.1875 160.18 99.8281C159.586 100.461 159.219 101.352 159.078 102.5H165.43V102.336C165.367 101.234 165.07 100.383 164.539 99.7812C164.008 99.1719 163.289 98.8672 162.383 98.8672ZM180.828 103.801C180.828 105.73 180.387 107.285 179.504 108.465C178.621 109.645 177.426 110.234 175.918 110.234C174.379 110.234 173.168 109.746 172.285 108.77V114.875H170.117V97.3203H172.098L172.203 98.7266C173.086 97.6328 174.312 97.0859 175.883 97.0859C177.406 97.0859 178.609 97.6602 179.492 98.8086C180.383 99.957 180.828 101.555 180.828 103.602V103.801ZM178.66 103.555C178.66 102.125 178.355 100.996 177.746 100.168C177.137 99.3398 176.301 98.9258 175.238 98.9258C173.926 98.9258 172.941 99.5078 172.285 100.672V106.73C172.934 107.887 173.926 108.465 175.262 108.465C176.301 108.465 177.125 108.055 177.734 107.234C178.352 106.406 178.66 105.18 178.66 103.555ZM191.422 110C191.297 109.75 191.195 109.305 191.117 108.664C190.109 109.711 188.906 110.234 187.508 110.234C186.258 110.234 185.23 109.883 184.426 109.18C183.629 108.469 183.23 107.57 183.23 106.484C183.23 105.164 183.73 104.141 184.73 103.414C185.738 102.68 187.152 102.312 188.973 102.312H191.082V101.316C191.082 100.559 190.855 99.957 190.402 99.5117C189.949 99.0586 189.281 98.832 188.398 98.832C187.625 98.832 186.977 99.0273 186.453 99.418C185.93 99.8086 185.668 100.281 185.668 100.836H183.488C183.488 100.203 183.711 99.5938 184.156 99.0078C184.609 98.4141 185.219 97.9453 185.984 97.6016C186.758 97.2578 187.605 97.0859 188.527 97.0859C189.988 97.0859 191.133 97.4531 191.961 98.1875C192.789 98.9141 193.219 99.918 193.25 101.199V107.035C193.25 108.199 193.398 109.125 193.695 109.812V110H191.422ZM187.824 108.348C188.504 108.348 189.148 108.172 189.758 107.82C190.367 107.469 190.809 107.012 191.082 106.449V103.848H189.383C186.727 103.848 185.398 104.625 185.398 106.18C185.398 106.859 185.625 107.391 186.078 107.773C186.531 108.156 187.113 108.348 187.824 108.348ZM202.777 99.2656C202.449 99.2109 202.094 99.1836 201.711 99.1836C200.289 99.1836 199.324 99.7891 198.816 101V110H196.648V97.3203H198.758L198.793 98.7852C199.504 97.6523 200.512 97.0859 201.816 97.0859C202.238 97.0859 202.559 97.1406 202.777 97.25V99.2656ZM208.309 94.25V97.3203H210.676V98.9961H208.309V106.859C208.309 107.367 208.414 107.75 208.625 108.008C208.836 108.258 209.195 108.383 209.703 108.383C209.953 108.383 210.297 108.336 210.734 108.242V110C210.164 110.156 209.609 110.234 209.07 110.234C208.102 110.234 207.371 109.941 206.879 109.355C206.387 108.77 206.141 107.938 206.141 106.859V98.9961H203.832V97.3203H206.141V94.25H208.309ZM215.258 97.3203L215.316 98.7266C216.246 97.6328 217.5 97.0859 219.078 97.0859C220.852 97.0859 222.059 97.7656 222.699 99.125C223.121 98.5156 223.668 98.0234 224.34 97.6484C225.02 97.2734 225.82 97.0859 226.742 97.0859C229.523 97.0859 230.938 98.5586 230.984 101.504V110H228.816V101.633C228.816 100.727 228.609 100.051 228.195 99.6055C227.781 99.1523 227.086 98.9258 226.109 98.9258C225.305 98.9258 224.637 99.168 224.105 99.6523C223.574 100.129 223.266 100.773 223.18 101.586V110H221V101.691C221 99.8477 220.098 98.9258 218.293 98.9258C216.871 98.9258 215.898 99.5312 215.375 100.742V110H213.207V97.3203H215.258ZM239.527 110.234C237.809 110.234 236.41 109.672 235.332 108.547C234.254 107.414 233.715 105.902 233.715 104.012V103.613C233.715 102.355 233.953 101.234 234.43 100.25C234.914 99.2578 235.586 98.4844 236.445 97.9297C237.312 97.3672 238.25 97.0859 239.258 97.0859C240.906 97.0859 242.188 97.6289 243.102 98.7148C244.016 99.8008 244.473 101.355 244.473 103.379V104.281H235.883C235.914 105.531 236.277 106.543 236.973 107.316C237.676 108.082 238.566 108.465 239.645 108.465C240.41 108.465 241.059 108.309 241.59 107.996C242.121 107.684 242.586 107.27 242.984 106.754L244.309 107.785C243.246 109.418 241.652 110.234 239.527 110.234ZM239.258 98.8672C238.383 98.8672 237.648 99.1875 237.055 99.8281C236.461 100.461 236.094 101.352 235.953 102.5H242.305V102.336C242.242 101.234 241.945 100.383 241.414 99.7812C240.883 99.1719 240.164 98.8672 239.258 98.8672ZM249.043 97.3203L249.113 98.9141C250.082 97.6953 251.348 97.0859 252.91 97.0859C255.59 97.0859 256.941 98.5977 256.965 101.621V110H254.797V101.609C254.789 100.695 254.578 100.02 254.164 99.582C253.758 99.1445 253.121 98.9258 252.254 98.9258C251.551 98.9258 250.934 99.1133 250.402 99.4883C249.871 99.8633 249.457 100.355 249.16 100.965V110H246.992V97.3203H249.043ZM263.176 94.25V97.3203H265.543V98.9961H263.176V106.859C263.176 107.367 263.281 107.75 263.492 108.008C263.703 108.258 264.062 108.383 264.57 108.383C264.82 108.383 265.164 108.336 265.602 108.242V110C265.031 110.156 264.477 110.234 263.938 110.234C262.969 110.234 262.238 109.941 261.746 109.355C261.254 108.77 261.008 107.938 261.008 106.859V98.9961H258.699V97.3203H261.008V94.25H263.176Z" fill="white"/>
<defs>
<clipPath id="clip0_176_640">
<rect width="179" height="145" fill="white"/>
</clipPath>
</defs>
</svg>
