<svg width="188" height="74" viewBox="0 0 188 74" fill="none" xmlns="http://www.w3.org/2000/svg">
<path d="M49.9609 42.1172V46.5469C49.7943 46.7604 49.5312 46.9922 49.1719 47.2422C48.8177 47.4922 48.3542 47.7083 47.7812 47.8906C47.2083 48.0677 46.5052 48.1562 45.6719 48.1562C44.9479 48.1562 44.2865 48.0365 43.6875 47.7969C43.0885 47.5521 42.5729 47.1953 42.1406 46.7266C41.7083 46.2578 41.375 45.6849 41.1406 45.0078C40.9062 44.3307 40.7891 43.5573 40.7891 42.6875V41.9375C40.7891 41.0677 40.8984 40.2943 41.1172 39.6172C41.3411 38.9401 41.6589 38.3672 42.0703 37.8984C42.487 37.4297 42.9844 37.0729 43.5625 36.8281C44.1458 36.5833 44.7969 36.4609 45.5156 36.4609C46.4792 36.4609 47.2708 36.6198 47.8906 36.9375C48.5156 37.2552 48.9948 37.6927 49.3281 38.25C49.6615 38.8021 49.8698 39.4375 49.9531 40.1562H47.8594C47.8021 39.7604 47.6875 39.4141 47.5156 39.1172C47.3438 38.8151 47.099 38.5807 46.7812 38.4141C46.4688 38.2422 46.0625 38.1562 45.5625 38.1562C45.1406 38.1562 44.7682 38.2396 44.4453 38.4062C44.1224 38.5729 43.8516 38.8151 43.6328 39.1328C43.4141 39.4505 43.2474 39.8438 43.1328 40.3125C43.0234 40.7812 42.9688 41.3177 42.9688 41.9219V42.6875C42.9688 43.2969 43.0312 43.8385 43.1562 44.3125C43.2812 44.7812 43.4609 45.1771 43.6953 45.5C43.9349 45.8177 44.2292 46.0599 44.5781 46.2266C44.9323 46.388 45.3333 46.4688 45.7812 46.4688C46.1875 46.4688 46.5234 46.4349 46.7891 46.3672C47.0599 46.2943 47.276 46.2083 47.4375 46.1094C47.599 46.0104 47.724 45.9141 47.8125 45.8203V43.6875H45.5547V42.1172H49.9609ZM55.6328 48.1562C54.9922 48.1562 54.4167 48.0521 53.9062 47.8438C53.3958 47.6354 52.9609 47.3464 52.6016 46.9766C52.2474 46.6016 51.974 46.1667 51.7812 45.6719C51.5938 45.1719 51.5 44.6354 51.5 44.0625V43.75C51.5 43.099 51.5938 42.5078 51.7812 41.9766C51.9688 41.4401 52.2344 40.9792 52.5781 40.5938C52.9219 40.2083 53.3333 39.9115 53.8125 39.7031C54.2917 39.4948 54.8203 39.3906 55.3984 39.3906C55.9974 39.3906 56.526 39.4922 56.9844 39.6953C57.4427 39.8932 57.8255 40.1745 58.1328 40.5391C58.4401 40.9036 58.6719 41.3411 58.8281 41.8516C58.9844 42.3568 59.0625 42.9167 59.0625 43.5312V44.3984H52.4375V42.9766H57.0312V42.8203C57.0208 42.4922 56.9583 42.1927 56.8438 41.9219C56.7292 41.6458 56.5521 41.4271 56.3125 41.2656C56.0729 41.099 55.763 41.0156 55.3828 41.0156C55.0755 41.0156 54.8073 41.0833 54.5781 41.2188C54.3542 41.349 54.1667 41.5365 54.0156 41.7812C53.8698 42.0208 53.7604 42.3073 53.6875 42.6406C53.6146 42.974 53.5781 43.3438 53.5781 43.75V44.0625C53.5781 44.4167 53.625 44.7448 53.7188 45.0469C53.8177 45.349 53.9609 45.612 54.1484 45.8359C54.3411 46.0547 54.5703 46.2266 54.8359 46.3516C55.1068 46.4714 55.4141 46.5312 55.7578 46.5312C56.1901 46.5312 56.5807 46.4479 56.9297 46.2812C57.2839 46.1094 57.5911 45.8568 57.8516 45.5234L58.8906 46.6016C58.7135 46.862 58.474 47.112 58.1719 47.3516C57.875 47.5911 57.5156 47.7865 57.0938 47.9375C56.6719 48.0833 56.1849 48.1562 55.6328 48.1562ZM62.4688 41.3516V48H60.4062V39.5469H62.3438L62.4688 41.3516ZM62.1406 43.4688H61.5312C61.5365 42.8542 61.6198 42.2969 61.7812 41.7969C61.9427 41.2969 62.1693 40.8672 62.4609 40.5078C62.7578 40.1484 63.1094 39.8724 63.5156 39.6797C63.9219 39.487 64.375 39.3906 64.875 39.3906C65.2812 39.3906 65.6484 39.4479 65.9766 39.5625C66.3047 39.6771 66.5859 39.8594 66.8203 40.1094C67.0599 40.3594 67.2422 40.6875 67.3672 41.0938C67.4974 41.4948 67.5625 41.9896 67.5625 42.5781V48H65.4844V42.5625C65.4844 42.1771 65.4271 41.8724 65.3125 41.6484C65.2031 41.4245 65.0417 41.2656 64.8281 41.1719C64.6198 41.0781 64.362 41.0312 64.0547 41.0312C63.737 41.0312 63.4583 41.0964 63.2188 41.2266C62.9844 41.3516 62.7865 41.526 62.625 41.75C62.4688 41.974 62.349 42.2318 62.2656 42.5234C62.1823 42.8151 62.1406 43.1302 62.1406 43.4688ZM73.1797 48.1562C72.5391 48.1562 71.9635 48.0521 71.4531 47.8438C70.9427 47.6354 70.5078 47.3464 70.1484 46.9766C69.7943 46.6016 69.5208 46.1667 69.3281 45.6719C69.1406 45.1719 69.0469 44.6354 69.0469 44.0625V43.75C69.0469 43.099 69.1406 42.5078 69.3281 41.9766C69.5156 41.4401 69.7812 40.9792 70.125 40.5938C70.4688 40.2083 70.8802 39.9115 71.3594 39.7031C71.8385 39.4948 72.3672 39.3906 72.9453 39.3906C73.5443 39.3906 74.0729 39.4922 74.5312 39.6953C74.9896 39.8932 75.3724 40.1745 75.6797 40.5391C75.987 40.9036 76.2188 41.3411 76.375 41.8516C76.5312 42.3568 76.6094 42.9167 76.6094 43.5312V44.3984H69.9844V42.9766H74.5781V42.8203C74.5677 42.4922 74.5052 42.1927 74.3906 41.9219C74.276 41.6458 74.099 41.4271 73.8594 41.2656C73.6198 41.099 73.3099 41.0156 72.9297 41.0156C72.6224 41.0156 72.3542 41.0833 72.125 41.2188C71.901 41.349 71.7135 41.5365 71.5625 41.7812C71.4167 42.0208 71.3073 42.3073 71.2344 42.6406C71.1615 42.974 71.125 43.3438 71.125 43.75V44.0625C71.125 44.4167 71.1719 44.7448 71.2656 45.0469C71.3646 45.349 71.5078 45.612 71.6953 45.8359C71.888 46.0547 72.1172 46.2266 72.3828 46.3516C72.6536 46.4714 72.9609 46.5312 73.3047 46.5312C73.737 46.5312 74.1276 46.4479 74.4766 46.2812C74.8307 46.1094 75.138 45.8568 75.3984 45.5234L76.4375 46.6016C76.2604 46.862 76.0208 47.112 75.7188 47.3516C75.4219 47.5911 75.0625 47.7865 74.6406 47.9375C74.2188 48.0833 73.7318 48.1562 73.1797 48.1562ZM80.0547 41.2734V48H77.9922V39.5469H79.9453L80.0547 41.2734ZM82.625 39.4922L82.5938 41.4141C82.4792 41.3932 82.349 41.3776 82.2031 41.3672C82.0625 41.3568 81.9297 41.3516 81.8047 41.3516C81.487 41.3516 81.2083 41.3958 80.9688 41.4844C80.7292 41.5677 80.5286 41.6901 80.3672 41.8516C80.2109 42.013 80.0911 42.2109 80.0078 42.4453C79.9245 42.6745 79.8776 42.9349 79.8672 43.2266L79.4219 43.1719C79.4219 42.6354 79.4766 42.138 79.5859 41.6797C79.6953 41.2214 79.8542 40.8203 80.0625 40.4766C80.2708 40.1328 80.5312 39.8672 80.8438 39.6797C81.1615 39.487 81.526 39.3906 81.9375 39.3906C82.0521 39.3906 82.1745 39.401 82.3047 39.4219C82.4401 39.4375 82.5469 39.4609 82.625 39.4922ZM88.1484 46.2031V42.3047C88.1484 42.0182 88.099 41.7708 88 41.5625C87.901 41.3542 87.75 41.1927 87.5469 41.0781C87.3438 40.9635 87.0859 40.9062 86.7734 40.9062C86.4974 40.9062 86.2552 40.9531 86.0469 41.0469C85.8438 41.1406 85.6875 41.2734 85.5781 41.4453C85.4688 41.612 85.4141 41.8047 85.4141 42.0234H83.3438C83.3438 41.6745 83.4271 41.3438 83.5938 41.0312C83.7604 40.7135 83.9974 40.4323 84.3047 40.1875C84.6172 39.9375 84.9896 39.7422 85.4219 39.6016C85.8594 39.4609 86.349 39.3906 86.8906 39.3906C87.5312 39.3906 88.1016 39.5 88.6016 39.7188C89.1068 39.9323 89.5026 40.2552 89.7891 40.6875C90.0807 41.1198 90.2266 41.6641 90.2266 42.3203V46.0078C90.2266 46.4297 90.2526 46.7917 90.3047 47.0938C90.362 47.3906 90.4453 47.6484 90.5547 47.8672V48H88.4531C88.3542 47.7865 88.2786 47.5156 88.2266 47.1875C88.1745 46.8542 88.1484 46.526 88.1484 46.2031ZM88.4375 42.8516L88.4531 44.0781H87.1484C86.8255 44.0781 86.5417 44.112 86.2969 44.1797C86.0521 44.2422 85.8516 44.3359 85.6953 44.4609C85.5391 44.5807 85.4219 44.7266 85.3438 44.8984C85.2656 45.0651 85.2266 45.2552 85.2266 45.4688C85.2266 45.6771 85.2734 45.8646 85.3672 46.0312C85.4661 46.1979 85.6068 46.3307 85.7891 46.4297C85.9766 46.5234 86.1953 46.5703 86.4453 46.5703C86.8099 46.5703 87.1276 46.4974 87.3984 46.3516C87.6693 46.2005 87.8802 46.0182 88.0312 45.8047C88.1823 45.5911 88.263 45.388 88.2734 45.1953L88.8672 46.0859C88.7943 46.2995 88.6849 46.526 88.5391 46.7656C88.3932 47.0052 88.2057 47.2292 87.9766 47.4375C87.7474 47.6458 87.4714 47.8177 87.1484 47.9531C86.8255 48.0885 86.4505 48.1562 86.0234 48.1562C85.4766 48.1562 84.987 48.0469 84.5547 47.8281C84.1224 47.6094 83.7812 47.3099 83.5312 46.9297C83.2812 46.5495 83.1562 46.1172 83.1562 45.6328C83.1562 45.1849 83.2396 44.7891 83.4062 44.4453C83.5729 44.1016 83.8203 43.8125 84.1484 43.5781C84.4766 43.3385 84.8828 43.1589 85.3672 43.0391C85.8568 42.9141 86.4167 42.8516 87.0469 42.8516H88.4375ZM94.2734 36V48H92.2031V36H94.2734ZM104.906 38.3516L101.664 48H99.3906L103.641 36.625H105.094L104.906 38.3516ZM107.617 48L104.359 38.3516L104.164 36.625H105.625L109.898 48H107.617ZM107.469 43.7734V45.4688H101.367V43.7734H107.469ZM113.617 48H111.539V38.7656C111.539 38.1302 111.661 37.5964 111.906 37.1641C112.151 36.7266 112.5 36.3958 112.953 36.1719C113.406 35.9479 113.94 35.8359 114.555 35.8359C114.758 35.8359 114.951 35.849 115.133 35.875C115.32 35.901 115.505 35.9375 115.688 35.9844L115.648 37.5547C115.549 37.5286 115.44 37.5104 115.32 37.5C115.206 37.4896 115.078 37.4844 114.938 37.4844C114.656 37.4844 114.417 37.5339 114.219 37.6328C114.021 37.7318 113.87 37.8776 113.766 38.0703C113.667 38.2578 113.617 38.4896 113.617 38.7656V48ZM115.328 39.5469V41.0312H110.266V39.5469H115.328ZM119.305 48H117.227V38.7656C117.227 38.1302 117.349 37.5964 117.594 37.1641C117.839 36.7266 118.188 36.3958 118.641 36.1719C119.094 35.9479 119.628 35.8359 120.242 35.8359C120.445 35.8359 120.638 35.849 120.82 35.875C121.008 35.901 121.193 35.9375 121.375 35.9844L121.336 37.5547C121.237 37.5286 121.128 37.5104 121.008 37.5C120.893 37.4896 120.766 37.4844 120.625 37.4844C120.344 37.4844 120.104 37.5339 119.906 37.6328C119.708 37.7318 119.557 37.8776 119.453 38.0703C119.354 38.2578 119.305 38.4896 119.305 38.7656V48ZM121.016 39.5469V41.0312H115.953V39.5469H121.016ZM126.945 46.2031V42.3047C126.945 42.0182 126.896 41.7708 126.797 41.5625C126.698 41.3542 126.547 41.1927 126.344 41.0781C126.141 40.9635 125.883 40.9062 125.57 40.9062C125.294 40.9062 125.052 40.9531 124.844 41.0469C124.641 41.1406 124.484 41.2734 124.375 41.4453C124.266 41.612 124.211 41.8047 124.211 42.0234H122.141C122.141 41.6745 122.224 41.3438 122.391 41.0312C122.557 40.7135 122.794 40.4323 123.102 40.1875C123.414 39.9375 123.786 39.7422 124.219 39.6016C124.656 39.4609 125.146 39.3906 125.688 39.3906C126.328 39.3906 126.898 39.5 127.398 39.7188C127.904 39.9323 128.299 40.2552 128.586 40.6875C128.878 41.1198 129.023 41.6641 129.023 42.3203V46.0078C129.023 46.4297 129.049 46.7917 129.102 47.0938C129.159 47.3906 129.242 47.6484 129.352 47.8672V48H127.25C127.151 47.7865 127.076 47.5156 127.023 47.1875C126.971 46.8542 126.945 46.526 126.945 46.2031ZM127.234 42.8516L127.25 44.0781H125.945C125.622 44.0781 125.339 44.112 125.094 44.1797C124.849 44.2422 124.648 44.3359 124.492 44.4609C124.336 44.5807 124.219 44.7266 124.141 44.8984C124.062 45.0651 124.023 45.2552 124.023 45.4688C124.023 45.6771 124.07 45.8646 124.164 46.0312C124.263 46.1979 124.404 46.3307 124.586 46.4297C124.773 46.5234 124.992 46.5703 125.242 46.5703C125.607 46.5703 125.924 46.4974 126.195 46.3516C126.466 46.2005 126.677 46.0182 126.828 45.8047C126.979 45.5911 127.06 45.388 127.07 45.1953L127.664 46.0859C127.591 46.2995 127.482 46.526 127.336 46.7656C127.19 47.0052 127.003 47.2292 126.773 47.4375C126.544 47.6458 126.268 47.8177 125.945 47.9531C125.622 48.0885 125.247 48.1562 124.82 48.1562C124.273 48.1562 123.784 48.0469 123.352 47.8281C122.919 47.6094 122.578 47.3099 122.328 46.9297C122.078 46.5495 121.953 46.1172 121.953 45.6328C121.953 45.1849 122.036 44.7891 122.203 44.4453C122.37 44.1016 122.617 43.8125 122.945 43.5781C123.273 43.3385 123.68 43.1589 124.164 43.0391C124.654 42.9141 125.214 42.8516 125.844 42.8516H127.234ZM133.07 39.5469V48H131V39.5469H133.07ZM130.859 37.3359C130.859 37.0286 130.964 36.7734 131.172 36.5703C131.385 36.3672 131.672 36.2656 132.031 36.2656C132.391 36.2656 132.674 36.3672 132.883 36.5703C133.096 36.7734 133.203 37.0286 133.203 37.3359C133.203 37.638 133.096 37.8906 132.883 38.0938C132.674 38.2969 132.391 38.3984 132.031 38.3984C131.672 38.3984 131.385 38.2969 131.172 38.0938C130.964 37.8906 130.859 37.638 130.859 37.3359ZM137.102 41.2734V48H135.039V39.5469H136.992L137.102 41.2734ZM139.672 39.4922L139.641 41.4141C139.526 41.3932 139.396 41.3776 139.25 41.3672C139.109 41.3568 138.977 41.3516 138.852 41.3516C138.534 41.3516 138.255 41.3958 138.016 41.4844C137.776 41.5677 137.576 41.6901 137.414 41.8516C137.258 42.013 137.138 42.2109 137.055 42.4453C136.971 42.6745 136.924 42.9349 136.914 43.2266L136.469 43.1719C136.469 42.6354 136.523 42.138 136.633 41.6797C136.742 41.2214 136.901 40.8203 137.109 40.4766C137.318 40.1328 137.578 39.8672 137.891 39.6797C138.208 39.487 138.573 39.3906 138.984 39.3906C139.099 39.3906 139.221 39.401 139.352 39.4219C139.487 39.4375 139.594 39.4609 139.672 39.4922ZM149.32 43.8516H146.391V42.1641H149.32C149.799 42.1641 150.188 42.0859 150.484 41.9297C150.786 41.7682 151.008 41.5495 151.148 41.2734C151.289 40.9922 151.359 40.6719 151.359 40.3125C151.359 39.9635 151.289 39.638 151.148 39.3359C151.008 39.0339 150.786 38.7891 150.484 38.6016C150.188 38.4141 149.799 38.3203 149.32 38.3203H147.094V48H144.945V36.625H149.32C150.206 36.625 150.961 36.7839 151.586 37.1016C152.216 37.4141 152.695 37.849 153.023 38.4062C153.357 38.9583 153.523 39.5885 153.523 40.2969C153.523 41.0312 153.357 41.6641 153.023 42.1953C152.695 42.7266 152.216 43.1354 151.586 43.4219C150.961 43.7083 150.206 43.8516 149.32 43.8516ZM154.578 43.8594V43.6953C154.578 43.0755 154.667 42.5052 154.844 41.9844C155.021 41.4583 155.279 41.0026 155.617 40.6172C155.956 40.2318 156.37 39.9323 156.859 39.7188C157.349 39.5 157.906 39.3906 158.531 39.3906C159.167 39.3906 159.729 39.5 160.219 39.7188C160.714 39.9323 161.13 40.2318 161.469 40.6172C161.807 41.0026 162.065 41.4583 162.242 41.9844C162.419 42.5052 162.508 43.0755 162.508 43.6953V43.8594C162.508 44.474 162.419 45.0443 162.242 45.5703C162.065 46.0911 161.807 46.5469 161.469 46.9375C161.13 47.3229 160.716 47.6224 160.227 47.8359C159.737 48.0495 159.177 48.1562 158.547 48.1562C157.922 48.1562 157.362 48.0495 156.867 47.8359C156.372 47.6224 155.956 47.3229 155.617 46.9375C155.279 46.5469 155.021 46.0911 154.844 45.5703C154.667 45.0443 154.578 44.474 154.578 43.8594ZM156.641 43.6953V43.8594C156.641 44.2292 156.677 44.5755 156.75 44.8984C156.823 45.2214 156.935 45.5052 157.086 45.75C157.237 45.9948 157.432 46.1875 157.672 46.3281C157.917 46.4635 158.208 46.5312 158.547 46.5312C158.88 46.5312 159.167 46.4635 159.406 46.3281C159.646 46.1875 159.841 45.9948 159.992 45.75C160.148 45.5052 160.263 45.2214 160.336 44.8984C160.409 44.5755 160.445 44.2292 160.445 43.8594V43.6953C160.445 43.3307 160.409 42.9896 160.336 42.6719C160.263 42.349 160.148 42.0651 159.992 41.8203C159.841 41.5703 159.643 41.375 159.398 41.2344C159.159 41.0885 158.87 41.0156 158.531 41.0156C158.198 41.0156 157.911 41.0885 157.672 41.2344C157.432 41.375 157.237 41.5703 157.086 41.8203C156.935 42.0651 156.823 42.349 156.75 42.6719C156.677 42.9896 156.641 43.3307 156.641 43.6953ZM166.07 41.2734V48H164.008V39.5469H165.961L166.07 41.2734ZM168.641 39.4922L168.609 41.4141C168.495 41.3932 168.365 41.3776 168.219 41.3672C168.078 41.3568 167.945 41.3516 167.82 41.3516C167.503 41.3516 167.224 41.3958 166.984 41.4844C166.745 41.5677 166.544 41.6901 166.383 41.8516C166.227 42.013 166.107 42.2109 166.023 42.4453C165.94 42.6745 165.893 42.9349 165.883 43.2266L165.438 43.1719C165.438 42.6354 165.492 42.138 165.602 41.6797C165.711 41.2214 165.87 40.8203 166.078 40.4766C166.286 40.1328 166.547 39.8672 166.859 39.6797C167.177 39.487 167.542 39.3906 167.953 39.3906C168.068 39.3906 168.19 39.401 168.32 39.4219C168.456 39.4375 168.562 39.4609 168.641 39.4922ZM174.164 39.5469V41.0312H169.32V39.5469H174.164ZM170.617 37.4688H172.688V45.5625C172.688 45.8125 172.721 46.0052 172.789 46.1406C172.857 46.276 172.958 46.3672 173.094 46.4141C173.229 46.4609 173.391 46.4844 173.578 46.4844C173.714 46.4844 173.839 46.4766 173.953 46.4609C174.068 46.4453 174.164 46.4297 174.242 46.4141L174.25 47.9609C174.078 48.0182 173.883 48.0651 173.664 48.1016C173.451 48.138 173.208 48.1562 172.938 48.1562C172.474 48.1562 172.068 48.0781 171.719 47.9219C171.37 47.7604 171.099 47.5026 170.906 47.1484C170.714 46.7891 170.617 46.3151 170.617 45.7266V37.4688ZM180.195 46.2031V42.3047C180.195 42.0182 180.146 41.7708 180.047 41.5625C179.948 41.3542 179.797 41.1927 179.594 41.0781C179.391 40.9635 179.133 40.9062 178.82 40.9062C178.544 40.9062 178.302 40.9531 178.094 41.0469C177.891 41.1406 177.734 41.2734 177.625 41.4453C177.516 41.612 177.461 41.8047 177.461 42.0234H175.391C175.391 41.6745 175.474 41.3438 175.641 41.0312C175.807 40.7135 176.044 40.4323 176.352 40.1875C176.664 39.9375 177.036 39.7422 177.469 39.6016C177.906 39.4609 178.396 39.3906 178.938 39.3906C179.578 39.3906 180.148 39.5 180.648 39.7188C181.154 39.9323 181.549 40.2552 181.836 40.6875C182.128 41.1198 182.273 41.6641 182.273 42.3203V46.0078C182.273 46.4297 182.299 46.7917 182.352 47.0938C182.409 47.3906 182.492 47.6484 182.602 47.8672V48H180.5C180.401 47.7865 180.326 47.5156 180.273 47.1875C180.221 46.8542 180.195 46.526 180.195 46.2031ZM180.484 42.8516L180.5 44.0781H179.195C178.872 44.0781 178.589 44.112 178.344 44.1797C178.099 44.2422 177.898 44.3359 177.742 44.4609C177.586 44.5807 177.469 44.7266 177.391 44.8984C177.312 45.0651 177.273 45.2552 177.273 45.4688C177.273 45.6771 177.32 45.8646 177.414 46.0312C177.513 46.1979 177.654 46.3307 177.836 46.4297C178.023 46.5234 178.242 46.5703 178.492 46.5703C178.857 46.5703 179.174 46.4974 179.445 46.3516C179.716 46.2005 179.927 46.0182 180.078 45.8047C180.229 45.5911 180.31 45.388 180.32 45.1953L180.914 46.0859C180.841 46.2995 180.732 46.526 180.586 46.7656C180.44 47.0052 180.253 47.2292 180.023 47.4375C179.794 47.6458 179.518 47.8177 179.195 47.9531C178.872 48.0885 178.497 48.1562 178.07 48.1562C177.523 48.1562 177.034 48.0469 176.602 47.8281C176.169 47.6094 175.828 47.3099 175.578 46.9297C175.328 46.5495 175.203 46.1172 175.203 45.6328C175.203 45.1849 175.286 44.7891 175.453 44.4453C175.62 44.1016 175.867 43.8125 176.195 43.5781C176.523 43.3385 176.93 43.1589 177.414 43.0391C177.904 42.9141 178.464 42.8516 179.094 42.8516H180.484ZM186.32 36V48H184.25V36H186.32Z" fill="#2A4878"/>
<path d="M88.8 19.7726L64.318 0L53.3317 11.19L39.7674 1.44203C25.074 14.9055 10.9446 28.5601 4.97702 37.3649C-10.9876 65.0029 14.5094 78.382 38.2878 72.7218C48.069 70.2063 55.3274 64.6293 63.7075 55.8134C52.074 62.856 45.9421 67.5767 37.9813 67.5531C-3.65192 67.429 12.4573 16.8241 65.4703 21.6924L59.8423 16.5436C60.5963 14.1981 70.1078 15.2195 88.8 19.7726Z" fill="#2A4878"/>
</svg>
